<?xml version="1.0" encoding="utf-8"?><!-- Uploaded to: SVG Repo, www.svgrepo.com, Generator: SVG Repo Mixer Tools -->
<svg fill="#000000" width="800px" height="800px" viewBox="0 0 24 24" id="web-cam" data-name="Flat Line" xmlns="http://www.w3.org/2000/svg" class="icon flat-line"><path id="secondary" d="M12,3a7,7,0,1,0,7,7A7,7,0,0,0,12,3Zm0,9a2,2,0,1,1,2-2A2,2,0,0,1,12,12Z" style="fill: rgb(44, 169, 188); stroke-width: 2;"></path><polyline id="primary" points="9.2 16.59 8 19 8 21 16 21 16 19 14.83 16.66" style="fill: none; stroke: rgb(0, 0, 0); stroke-linecap: round; stroke-linejoin: round; stroke-width: 2;"></polyline><path id="primary-2" data-name="primary" d="M14,10a2,2,0,1,1-2-2A2,2,0,0,1,14,10Zm5,0a7,7,0,1,0-7,7A7,7,0,0,0,19,10Z" style="fill: none; stroke: rgb(0, 0, 0); stroke-linecap: round; stroke-linejoin: round; stroke-width: 2;"></path></svg>